<svg width="1728" height="61" viewBox="0 0 1728 61" fill="none" xmlns="http://www.w3.org/2000/svg">
<path d="M44.184 27.24L40.416 39H37.968L34.272 30.648H34.224L30.528 39H28.104L24.312 27.24H27.072L29.52 35.496H29.568L33.168 27.24H35.352L38.952 35.496H39L41.448 27.24H44.184ZM58.5534 33.12C58.5534 37.272 55.4094 39.288 51.8334 39.288C48.2334 39.288 45.0894 37.272 45.0894 33.12C45.0894 28.968 48.2334 26.952 51.8334 26.952C55.4094 26.952 58.5534 28.968 58.5534 33.12ZM55.8894 33.12C55.8894 30.576 54.1854 29.208 51.8334 29.208C49.4574 29.208 47.7534 30.576 47.7534 33.12C47.7534 35.664 49.4574 36.984 51.8334 36.984C54.1854 36.984 55.8894 35.664 55.8894 33.12ZM63.4232 27.24V28.704H63.4712C64.0232 28.128 65.4392 26.952 68.0552 26.952C71.0792 26.952 73.2152 28.584 73.2152 32.28V39H70.5992V32.904C70.5992 30.216 69.3272 29.232 67.2152 29.232C65.3912 29.232 64.1192 30.288 63.5432 30.864V39H60.9272V27.24H63.4232ZM88.5176 21.96V39H86.0216V37.536H85.9736C85.5656 37.992 84.3896 39.288 81.4856 39.288C78.1016 39.288 75.6056 37.176 75.6056 33.096C75.6056 29.088 78.4136 26.952 81.7016 26.952C84.2936 26.952 85.4216 28.008 85.8536 28.416H85.9016V21.96H88.5176ZM78.2696 33.024C78.2696 35.664 79.9496 36.984 82.2056 36.984C84.5336 36.984 85.4696 35.928 85.9016 35.376V30.912C85.3976 30.312 84.4136 29.208 82.2296 29.208C79.9736 29.208 78.2696 30.528 78.2696 33.024ZM90.9566 33.048C90.9566 29.16 93.8606 26.952 97.3886 26.952C101.109 26.952 103.101 29.208 103.101 32.832V33.912H93.5966C93.8606 35.808 95.2046 36.984 97.8686 36.984C100.245 36.984 101.709 36.024 102.141 35.688L103.029 37.608C102.381 38.112 100.581 39.288 97.3406 39.288C93.3806 39.288 90.9566 36.984 90.9566 33.048ZM97.3166 29.112C95.3246 29.112 93.8126 30.12 93.5726 32.016H100.605C100.533 30.288 99.3086 29.112 97.3166 29.112ZM112.895 27.024V29.328C112.871 29.304 112.535 29.304 112.247 29.304C109.991 29.304 108.791 30.384 108.215 31.464V39H105.599V27.24H108.095V29.376H108.143C108.695 28.248 109.919 27.024 112.895 27.024ZM133.411 27.24L129.643 39H127.195L123.499 30.648H123.451L119.755 39H117.331L113.539 27.24H116.299L118.747 35.496H118.795L122.395 27.24H124.579L128.179 35.496H128.227L130.675 27.24H133.411ZM134.462 35.712C134.462 33.36 136.574 32.088 140.054 32.088C141.446 32.088 142.598 32.208 143.03 32.256V32.088C143.03 30.216 142.19 29.16 139.91 29.16C137.702 29.16 136.31 30.072 135.662 30.696L134.654 28.896C135.422 28.2 137.246 26.952 140.222 26.952C144.086 26.952 145.622 29.04 145.622 32.208V39H143.15V37.584H143.102C142.742 38.04 141.614 39.288 138.686 39.288C135.782 39.288 134.462 37.8 134.462 35.712ZM137.078 35.52C137.078 36.504 137.702 37.152 139.334 37.152C141.662 37.152 142.694 36 143.03 35.592V34.032C142.478 34.008 141.638 33.96 140.366 33.96C138.014 33.96 137.078 34.56 137.078 35.52ZM160.637 27.24L155.477 38.088C153.293 42.696 151.877 43.944 147.197 43.944V41.616C150.221 41.616 151.493 40.704 152.549 38.472L146.981 27.24H149.885L153.917 35.832H153.965L157.829 27.24H160.637ZM181.975 33.12C181.975 37.272 178.831 39.288 175.255 39.288C171.655 39.288 168.511 37.272 168.511 33.12C168.511 28.968 171.655 26.952 175.255 26.952C178.831 26.952 181.975 28.968 181.975 33.12ZM179.311 33.12C179.311 30.576 177.607 29.208 175.255 29.208C172.879 29.208 171.175 30.576 171.175 33.12C171.175 35.664 172.879 36.984 175.255 36.984C177.607 36.984 179.311 35.664 179.311 33.12ZM191.814 27.24V29.376H187.878V39H185.262V29.376H183.414V27.24H185.262V26.784C185.262 23.328 187.23 21.816 190.038 21.816C190.974 21.816 191.55 21.984 191.814 22.08V24.216C191.598 24.144 191.142 24 190.374 24C188.766 24 187.878 24.672 187.878 26.544V27.24H191.814ZM203.731 22.8V25.368H200.995V22.8H203.731ZM203.659 27.24V39.312C203.659 42.912 201.907 44.016 199.171 44.016C198.235 44.016 197.803 43.872 197.515 43.776V41.616C197.731 41.688 198.187 41.808 198.835 41.808C200.395 41.808 201.043 41.112 201.043 39.168V27.24H203.659Z" fill="#0C1313"/>
<path d="M235 17.5C242.18 17.5 248 23.3203 248 30.5C248 37.6797 242.18 43.5 235 43.5C227.82 43.5 222 37.6797 222 30.5C222 23.3203 227.82 17.5 235 17.5ZM271 17.5C278.18 17.5 284 23.3203 284 30.5C284 37.6797 278.18 43.5 271 43.5C263.82 43.5 258 37.6797 258 30.5C258 23.3203 263.82 17.5 271 17.5ZM307 17.5C314.18 17.5 320 23.3203 320 30.5C320 37.6797 314.18 43.5 307 43.5C299.82 43.5 294 37.6797 294 30.5C294 23.3203 299.82 17.5 307 17.5ZM235 34.7734C231.752 34.7734 228.853 35.9728 226.824 37.8584C228.838 40.094 231.754 41.5 235 41.5C238.245 41.5 241.161 40.0938 243.175 37.8584C241.146 35.9731 238.248 34.7734 235 34.7734ZM264.378 39.2822C266.22 40.6736 268.513 41.5 271 41.5C276.738 41.5 281.448 37.1064 281.953 31.5H272.161L264.378 39.2822ZM306.527 24.6904C303.092 24.6906 300.621 27.4507 298.615 30.5391C298.335 30.9701 297.88 31.6183 297.37 32.2412C297.072 32.6055 296.728 32.995 296.37 33.332C297.62 38.0345 301.904 41.5 307 41.5C310.264 41.5 313.194 40.0765 315.209 37.8184C314.098 38.2684 312.904 38.4775 311.524 38.4775C307.858 38.4774 304.662 35.9112 304.662 32.1201C304.662 30.2678 305.412 28.6867 306.678 27.5811C307.581 26.7918 308.722 26.2673 309.991 26.0352C309.78 25.7676 309.53 25.5405 309.239 25.3555C308.589 24.9414 307.688 24.6905 306.527 24.6904ZM262.896 23.0635C261.098 25.0215 260 27.6324 260 30.5C260 33.3674 261.098 35.9775 262.896 37.9355L270.332 30.5L262.896 23.0635ZM307 19.5C300.925 19.5 296 24.4249 296 30.5C296 30.581 296.004 30.6616 296.006 30.7422C296.387 30.2577 296.726 29.7773 296.938 29.4502C298.935 26.3762 301.932 22.6906 306.527 22.6904C307.965 22.6905 309.264 23.001 310.313 23.6689C311.377 24.3463 312.122 25.3546 312.485 26.623L312.851 27.8975H311.524C310.053 27.8975 308.832 28.3555 307.994 29.0869C307.168 29.8088 306.662 30.8388 306.662 32.1201C306.662 34.5976 308.741 36.4774 311.524 36.4775C312.86 36.4775 313.895 36.2506 314.829 35.8027C315.709 35.3806 316.549 34.7354 317.494 33.8027C317.822 32.7601 318 31.6509 318 30.5C318 24.4249 313.075 19.5 307 19.5ZM235 19.5C228.925 19.5 224 24.4249 224 30.5C224 32.6071 224.594 34.5752 225.621 36.248C228.022 34.0916 231.349 32.7734 235 32.7734C238.651 32.7734 241.977 34.0919 244.378 36.248C245.406 34.5751 246 32.6073 246 30.5C246 24.4249 241.075 19.5 235 19.5ZM271 19.5C268.514 19.5 266.22 20.3256 264.378 21.7168L272.161 29.5H281.953C281.448 23.8936 276.738 19.5 271 19.5Z" fill="#0C1313"/>
<path d="M340.536 22.8V25.368H337.8V22.8H340.536ZM340.464 27.24V39.312C340.464 42.912 338.712 44.016 335.976 44.016C335.04 44.016 334.608 43.872 334.32 43.776V41.616C334.536 41.688 334.992 41.808 335.64 41.808C337.2 41.808 337.848 41.112 337.848 39.168V27.24H340.464ZM343.22 35.712C343.22 33.36 345.332 32.088 348.812 32.088C350.204 32.088 351.356 32.208 351.788 32.256V32.088C351.788 30.216 350.948 29.16 348.668 29.16C346.46 29.16 345.068 30.072 344.42 30.696L343.412 28.896C344.18 28.2 346.004 26.952 348.98 26.952C352.844 26.952 354.38 29.04 354.38 32.208V39H351.908V37.584H351.86C351.5 38.04 350.372 39.288 347.444 39.288C344.54 39.288 343.22 37.8 343.22 35.712ZM345.836 35.52C345.836 36.504 346.46 37.152 348.092 37.152C350.42 37.152 351.452 36 351.788 35.592V34.032C351.236 34.008 350.396 33.96 349.124 33.96C346.772 33.96 345.836 34.56 345.836 35.52ZM360.001 27.24V28.704H360.049C360.601 28.128 362.017 26.952 364.633 26.952C367.657 26.952 369.793 28.584 369.793 32.28V39H367.177V32.904C367.177 30.216 365.905 29.232 363.793 29.232C361.969 29.232 360.697 30.288 360.121 30.864V39H357.505V27.24H360.001ZM392.078 27.24L386.39 39H384.11L378.446 27.24H381.326L385.262 35.832H385.31L389.27 27.24H392.078ZM400.225 22.536V22.584L396.265 25.896H393.697L396.937 22.536H400.225ZM396.289 27.24V39H393.697V27.24H396.289ZM406.944 27.24V29.376H403.008V34.104C403.008 36.264 403.704 36.936 405.456 36.936C406.176 36.936 406.704 36.792 406.944 36.672V38.88C406.68 39 405.984 39.216 404.856 39.216C402.288 39.216 400.416 38.232 400.416 34.32V29.376H398.568V27.24H400.416V24.6H403.008V27.24H406.944ZM408.136 33.048C408.136 29.16 411.04 26.952 414.568 26.952C418.288 26.952 420.28 29.208 420.28 32.832V33.912H410.776C411.04 35.808 412.384 36.984 415.048 36.984C417.424 36.984 418.888 36.024 419.32 35.688L420.208 37.608C419.56 38.112 417.76 39.288 414.52 39.288C410.56 39.288 408.136 36.984 408.136 33.048ZM414.496 29.112C412.504 29.112 410.992 30.12 410.752 32.016H417.784C417.712 30.288 416.488 29.112 414.496 29.112ZM435.547 39H432.019L427.483 33.96H425.467V39H422.851V21.96H425.467V31.704H427.603L431.707 27.24H435.067L429.835 32.88L435.547 39Z" fill="#0C1313"/>
<path d="M1383.31 28.152L1382.42 30.168C1381.9 29.832 1380.84 29.208 1379.06 29.208C1376.59 29.208 1374.48 30.384 1374.48 33C1374.48 35.808 1376.33 36.984 1378.85 36.984C1380.84 36.984 1381.97 36.36 1382.52 36.024L1383.24 38.112C1382.52 38.568 1381.06 39.288 1378.46 39.288C1374.74 39.288 1371.82 37.464 1371.82 33.144C1371.82 28.8 1375.34 26.952 1378.82 26.952C1381.34 26.952 1382.57 27.648 1383.31 28.152ZM1396.04 27.24V28.92L1388.84 36.696V36.744H1396.26V39H1384.69V37.344L1392.06 29.448V29.4H1384.98V27.24H1396.04Z" fill="#0C1313"/>
<path d="M1417.3 21.96V41.88H1415.16V21.96H1417.3Z" fill="#0C1313"/>
<path d="M1436.82 33.048C1436.82 29.16 1439.72 26.952 1443.25 26.952C1446.97 26.952 1448.96 29.208 1448.96 32.832V33.912H1439.46C1439.72 35.808 1441.06 36.984 1443.73 36.984C1446.1 36.984 1447.57 36.024 1448 35.688L1448.89 37.608C1448.24 38.112 1446.44 39.288 1443.2 39.288C1439.24 39.288 1436.82 36.984 1436.82 33.048ZM1443.18 29.112C1441.18 29.112 1439.67 30.12 1439.43 32.016H1446.46C1446.39 30.288 1445.17 29.112 1443.18 29.112ZM1453.95 27.24V28.704H1454C1454.55 28.128 1455.97 26.952 1458.59 26.952C1461.61 26.952 1463.75 28.584 1463.75 32.28V39H1461.13V32.904C1461.13 30.216 1459.86 29.232 1457.75 29.232C1455.92 29.232 1454.65 30.288 1454.07 30.864V39H1451.46V27.24H1453.95Z" fill="#0C1313"/>
<path d="M1595.36 40.008L1593.82 38.496L1599.9 32.568V32.52H1587.08V30.384H1599.9V30.336L1593.82 24.384L1595.36 22.872L1603.93 31.44L1595.36 40.008ZM1626.74 39H1623.21L1618.68 33.96H1616.66V39H1614.05V21.96H1616.66V31.704H1618.8L1622.9 27.24H1626.26L1621.03 32.88L1626.74 39ZM1640.38 33.12C1640.38 37.272 1637.24 39.288 1633.66 39.288C1630.06 39.288 1626.92 37.272 1626.92 33.12C1626.92 28.968 1630.06 26.952 1633.66 26.952C1637.24 26.952 1640.38 28.968 1640.38 33.12ZM1637.72 33.12C1637.72 30.576 1636.01 29.208 1633.66 29.208C1631.29 29.208 1629.58 30.576 1629.58 33.12C1629.58 35.664 1631.29 36.984 1633.66 36.984C1636.01 36.984 1637.72 35.664 1637.72 33.12ZM1645.25 27.24V28.704H1645.3C1645.85 28.128 1647.27 26.952 1649.88 26.952C1652.91 26.952 1655.04 28.584 1655.04 32.28V39H1652.43V32.904C1652.43 30.216 1651.16 29.232 1649.04 29.232C1647.22 29.232 1645.95 30.288 1645.37 30.864V39H1642.76V27.24H1645.25ZM1665.38 27.24V29.376H1661.45V34.104C1661.45 36.264 1662.14 36.936 1663.89 36.936C1664.61 36.936 1665.14 36.792 1665.38 36.672V38.88C1665.12 39 1664.42 39.216 1663.29 39.216C1660.73 39.216 1658.85 38.232 1658.85 34.32V29.376H1657.01V27.24H1658.85V24.6H1661.45V27.24H1665.38ZM1667.07 35.712C1667.07 33.36 1669.18 32.088 1672.66 32.088C1674.06 32.088 1675.21 32.208 1675.64 32.256V32.088C1675.64 30.216 1674.8 29.16 1672.52 29.16C1670.31 29.16 1668.92 30.072 1668.27 30.696L1667.26 28.896C1668.03 28.2 1669.86 26.952 1672.83 26.952C1676.7 26.952 1678.23 29.04 1678.23 32.208V39H1675.76V37.584H1675.71C1675.35 38.04 1674.22 39.288 1671.3 39.288C1668.39 39.288 1667.07 37.8 1667.07 35.712ZM1669.69 35.52C1669.69 36.504 1670.31 37.152 1671.94 37.152C1674.27 37.152 1675.3 36 1675.64 35.592V34.032C1675.09 34.008 1674.25 33.96 1672.98 33.96C1670.62 33.96 1669.69 34.56 1669.69 35.52ZM1694.12 39H1690.6L1686.06 33.96H1684.04V39H1681.43V21.96H1684.04V31.704H1686.18L1690.28 27.24H1693.64L1688.41 32.88L1694.12 39ZM1702.9 27.24V29.376H1698.97V34.104C1698.97 36.264 1699.66 36.936 1701.42 36.936C1702.14 36.936 1702.66 36.792 1702.9 36.672V38.88C1702.64 39 1701.94 39.216 1700.82 39.216C1698.25 39.216 1696.38 38.232 1696.38 34.32V29.376H1694.53V27.24H1696.38V24.6H1698.97V27.24H1702.9Z" fill="#0C1313"/>
</svg>
