<svg width="98" height="26" viewBox="0 0 98 26" fill="none" xmlns="http://www.w3.org/2000/svg">
<path d="M13 0C20.1797 0 26 5.8203 26 13C26 20.1797 20.1797 26 13 26C5.8203 26 0 20.1797 0 13C0 5.8203 5.8203 0 13 0ZM49 0C56.1797 0 62 5.8203 62 13C62 20.1797 56.1797 26 49 26C41.8203 26 36 20.1797 36 13C36 5.8203 41.8203 0 49 0ZM85 0C92.1797 0 98 5.8203 98 13C98 20.1797 92.1797 26 85 26C77.8203 26 72 20.1797 72 13C72 5.8203 77.8203 0 85 0ZM13 17.2734C9.75218 17.2734 6.85274 18.4728 4.82422 20.3584C6.83765 22.594 9.75447 24 13 24C16.2453 24 19.1614 22.5938 21.1748 20.3584C19.1463 18.4731 16.2475 17.2734 13 17.2734ZM42.3779 21.7822C44.2203 23.1736 46.5133 24 49 24C54.738 24 59.4478 19.6064 59.9531 14H50.1611L42.3779 21.7822ZM84.5273 7.19043C81.0917 7.19056 78.6209 9.95068 76.6152 13.0391C76.3353 13.4701 75.8797 14.1183 75.3701 14.7412C75.0721 15.1055 74.7279 15.495 74.3701 15.832C75.6197 20.5345 79.9042 24 85 24C88.2642 24 91.1944 22.5765 93.209 20.3184C92.0981 20.7684 90.9036 20.9775 89.5244 20.9775C85.858 20.9774 82.6621 18.4112 82.6621 14.6201C82.6622 12.7677 83.4121 11.1867 84.6777 10.0811C85.5814 9.29179 86.7218 8.76732 87.9912 8.53516C87.7803 8.26758 87.5299 8.04055 87.2393 7.85547C86.5889 7.44139 85.6881 7.19047 84.5273 7.19043ZM40.8955 5.56348C39.0979 7.52154 38 10.1324 38 13C38 15.8674 39.0982 18.4775 40.8955 20.4355L48.332 13L40.8955 5.56348ZM85 2C78.9249 2 74 6.92487 74 13C74 13.081 74.0041 13.1616 74.0059 13.2422C74.3875 12.7577 74.726 12.2773 74.9385 11.9502C76.9348 8.87619 79.9322 5.19056 84.5273 5.19043C85.9648 5.19047 87.2644 5.50094 88.3135 6.16895C89.377 6.84627 90.1224 7.8546 90.4854 9.12305L90.8506 10.3975H89.5244C88.0526 10.3975 86.8317 10.8555 85.9941 11.5869C85.1677 12.3088 84.6622 13.3388 84.6621 14.6201C84.6621 17.0977 86.7413 18.9774 89.5244 18.9775C90.8597 18.9775 91.8949 18.7506 92.8291 18.3027C93.7095 17.8806 94.5492 17.2354 95.4941 16.3027C95.822 15.2601 96 14.1509 96 13C96 6.92487 91.0751 2 85 2ZM13 2C6.92487 2 2 6.92487 2 13C2 15.1071 2.59365 17.0752 3.62109 18.748C6.02185 16.5916 9.3488 15.2734 13 15.2734C16.6509 15.2734 19.9772 16.5919 22.3779 18.748C23.4055 17.0751 24 15.1073 24 13C24 6.92487 19.0751 2 13 2ZM49 2C46.5135 2 44.2202 2.82561 42.3779 4.2168L50.1611 12H59.9531C59.4478 6.39359 54.738 2 49 2Z" fill="#0C1313"/>
</svg>
